<?xml version="1.0" encoding="UTF-8" standalone="no"?>
<!-- Created with Inkscape (http://www.inkscape.org/) -->

<svg
   width="185.20763mm"
   height="69.820686mm"
   viewBox="0 0 185.20763 69.820686"
   version="1.1"
   id="svg1"
   xml:space="preserve"
   xmlns:inkscape="http://www.inkscape.org/namespaces/inkscape"
   xmlns:sodipodi="http://sodipodi.sourceforge.net/DTD/sodipodi-0.dtd"
   xmlns="http://www.w3.org/2000/svg"
   xmlns:svg="http://www.w3.org/2000/svg"><sodipodi:namedview
     id="namedview1"
     pagecolor="#ffffff"
     bordercolor="#000000"
     borderopacity="0.25"
     inkscape:showpageshadow="2"
     inkscape:pageopacity="0.0"
     inkscape:pagecheckerboard="0"
     inkscape:deskcolor="#d1d1d1"
     inkscape:document-units="mm" /><defs
     id="defs1" /><g
     inkscape:label="Layer 1"
     inkscape:groupmode="layer"
     id="layer1"
     transform="translate(-13.488666,-49.36912)"><path
       style="fill:#fe8c00;fill-opacity:1"
       d="m 121.54318,119.13408 c -0.0378,-0.0378 -0.55774,-0.12447 -1.1555,-0.1927 -1.41495,-0.16148 -2.30829,-0.30883 -2.49365,-0.41131 -0.0819,-0.0453 -0.34314,-0.11437 -0.58059,-0.15358 -0.23744,-0.0392 -0.47526,-0.10488 -0.52848,-0.14594 -0.0532,-0.0411 -0.24122,-0.10555 -0.41777,-0.14332 -0.17655,-0.0378 -0.43782,-0.12962 -0.58059,-0.20411 -0.14277,-0.0745 -0.3146,-0.1357 -0.38185,-0.13603 -0.0672,-3.2e-4 -0.19788,-0.0405 -0.2903,-0.0892 -0.0924,-0.0487 -0.51637,-0.25419 -0.94214,-0.45662 -0.72533,-0.34486 -1.68124,-0.87802 -1.79014,-0.99846 -0.0266,-0.0294 -0.24431,-0.18402 -0.48378,-0.34353 -0.61011,-0.4064 -1.90505,-1.71061 -2.49774,-2.51561 -0.27429,-0.37255 -0.543,-0.72995 -0.59713,-0.79423 -0.0541,-0.0643 -0.0984,-0.14655 -0.0984,-0.18282 0,-0.0363 -0.12951,-0.27644 -0.2878,-0.53369 -0.15829,-0.25725 -0.31541,-0.57776 -0.34917,-0.71224 -0.0337,-0.13449 -0.10019,-0.24452 -0.14764,-0.24452 -0.0475,0 -0.0863,-0.0479 -0.0863,-0.10633 0,-0.0585 -0.0619,-0.24355 -0.13758,-0.41125 -0.0757,-0.16771 -0.23248,-0.60973 -0.34848,-0.98227 -0.11599,-0.37255 -0.24837,-0.76444 -0.29418,-0.87089 -0.27183,-0.63164 -0.4475,-2.18404 -0.4684,-4.13925 -0.01,-0.89286 -0.0362,-1.67665 -0.0592,-1.74176 -0.023,-0.0651 -0.0848,-0.44498 -0.13742,-0.84413 -0.12083,-0.91744 -0.14646,-1.04336 -0.22922,-1.12612 -0.037,-0.037 -0.0673,-0.14566 -0.0673,-0.24143 0,-0.32259 -0.83723,-2.128027 -1.33413,-2.876987 -0.4288,-0.64631 -1.43883,-1.68366 -2.17592,-2.23477 -0.76932,-0.57521 -1.17743,-0.79898 -2.779648,-1.52412 -0.18627,-0.0843 -0.40399,-0.18367 -0.48383,-0.22082 -0.0798,-0.0371 -0.47172,-0.16461 -0.87088,-0.28325 -0.39915,-0.11865 -0.83459,-0.25601 -0.96764,-0.30524 -0.319012,-0.11806 -1.157013,-0.29576 -2.757798,-0.5848 -0.319324,-0.0577 -1.190206,-0.12782 -1.935294,-0.15592 -0.745088,-0.0281 -1.399062,-0.086 -1.453277,-0.1287 -0.123451,-0.0972 -2.848946,-0.093 -3.04628,0.005 -0.07983,0.0395 -0.994257,0.0997 -2.032058,0.13376 -1.037802,0.0341 -1.995772,0.0882 -2.128823,0.12041 -0.249957,0.0605 -1.436441,0.20231 -2.032058,0.24296 -0.186272,0.0127 -0.382221,0.0478 -0.435442,0.078 -0.05322,0.0302 -0.445117,0.10653 -0.870882,0.16965 -0.425764,0.0631 -1.144242,0.17879 -1.596617,0.25704 -0.452375,0.0782 -1.127308,0.19039 -1.499852,0.2492 -0.372544,0.0588 -0.742669,0.13333 -0.8225,0.1656 -0.07983,0.0323 -0.449956,0.12042 -0.8225,0.19589 -1.490584,0.30193 -2.152245,0.43297 -2.649383,0.52469 -0.286308,0.0528 -0.591117,0.13254 -0.677353,0.17713 -0.08624,0.0446 -0.374513,0.1125 -0.640615,0.1509 -0.266103,0.0384 -0.527368,0.10402 -0.580588,0.14583 -0.05322,0.0418 -0.336258,0.12202 -0.628971,0.17824 -0.760142,0.14597 -1.476231,0.31122 -1.644999,0.3796 -0.07983,0.0323 -0.362868,0.11223 -0.628971,0.17754 -0.266103,0.0653 -0.745088,0.19068 -1.064411,0.27862 -0.319324,0.0879 -0.820081,0.21999 -1.112794,0.29344 -0.292713,0.0735 -0.728154,0.18302 -0.967647,0.24347 -0.239492,0.0605 -0.502431,0.14511 -0.584309,0.18812 -0.08188,0.043 -0.332028,0.10914 -0.55589,0.14696 -0.223862,0.0378 -0.431591,0.10853 -0.461622,0.15712 -0.03003,0.0486 -0.146934,0.0884 -0.259788,0.0884 -0.187343,0 -1.201471,0.29468 -1.670301,0.48536 -0.106442,0.0433 -0.367706,0.12279 -0.580588,0.17668 -0.212883,0.0539 -0.626552,0.1695 -0.919265,0.25692 -0.292713,0.0874 -0.696967,0.20001 -0.898343,0.25019 -0.201376,0.0502 -0.440868,0.12809 -0.532206,0.17314 -0.239721,0.11823 -1.138931,0.39947 -1.277225,0.39947 -0.06464,0 -0.254749,0.059 -0.422454,0.13107 -0.264381,0.11365 -1.423208,0.49012 -3.111093,1.0107 -0.266103,0.0821 -0.621037,0.20711 -0.788742,0.277847 -0.167705,0.0707 -0.371969,0.12861 -0.453921,0.12861 -0.08195,0 -0.173574,0.0397 -0.203604,0.0883 -0.03003,0.0486 -0.22832,0.1177 -0.440645,0.15357 -0.212324,0.0359 -0.408273,0.10119 -0.435441,0.14515 -0.02717,0.044 -0.223116,0.10927 -0.435441,0.14514 -0.212324,0.0359 -0.410614,0.10498 -0.440644,0.15357 -0.03003,0.0486 -0.128233,0.0886 -0.218228,0.0889 -0.09,3.3e-4 -0.280441,0.0615 -0.423212,0.13603 -0.142772,0.0745 -0.404036,0.16633 -0.580588,0.20411 -0.176552,0.0378 -0.364548,0.10151 -0.417768,0.14165 -0.05322,0.0401 -0.260055,0.10239 -0.459632,0.13835 -0.199578,0.036 -0.362868,0.10139 -0.362868,0.1454 0,0.044 -0.183758,0.1094 -0.40835,0.14531 -0.224593,0.0359 -0.431427,0.0959 -0.459632,0.13332 -0.0282,0.0374 -0.377863,0.17517 -0.777017,0.30612 -0.399155,0.13094 -0.767102,0.27246 -0.817662,0.31448 -0.05056,0.042 -0.152839,0.0764 -0.227288,0.0764 -0.07445,0 -0.272574,0.0604 -0.440279,0.13413 -0.167705,0.0738 -0.587955,0.22967 -0.933888,0.34645 -0.345934,0.11678 -0.695716,0.24683 -0.777294,0.28901 -0.08158,0.0422 -0.287913,0.10734 -0.458522,0.14482 -0.17061,0.0375 -0.335041,0.10832 -0.365403,0.15745 -0.03036,0.0491 -0.128835,0.0896 -0.21883,0.0899 -0.09,3.3e-4 -0.288351,0.0656 -0.440791,0.14514 -0.15244,0.0795 -0.326616,0.14482 -0.387059,0.14515 -0.06044,3.3e-4 -0.23148,0.064 -0.380085,0.14153 -0.148604,0.0775 -0.420755,0.16918 -0.604779,0.2037 -0.184024,0.0345 -0.334589,0.10147 -0.334589,0.14877 0,0.0473 -0.0762,0.0863 -0.169338,0.0866 -0.09314,3.3e-4 -0.286152,0.0615 -0.428923,0.13602 -0.142772,0.0745 -0.392651,0.16466 -0.555287,0.20038 -0.162637,0.0357 -0.320544,0.10514 -0.350906,0.15427 -0.03036,0.0491 -0.128835,0.0896 -0.21883,0.0899 -0.09,3.3e-4 -0.28044,0.0615 -0.423212,0.13603 -0.142772,0.0745 -0.392651,0.16465 -0.555287,0.20037 -0.162637,0.0357 -0.320544,0.10515 -0.350905,0.15427 -0.03036,0.0491 -0.122255,0.0893 -0.204207,0.0893 -0.150743,0 -0.628212,0.18657 -1.129548,0.44136 -0.15067,0.0766 -0.324846,0.14071 -0.387059,0.14251 -0.06221,0.002 -0.287291,0.0874 -0.500173,0.19025 -0.212882,0.10283 -0.44208,0.18844 -0.509327,0.19025 -0.124028,0.003 -0.204687,0.037 -0.780647,0.32558 -0.177279,0.0888 -0.373228,0.163 -0.435441,0.16481 -0.06221,0.002 -0.28729,0.0874 -0.500172,0.19024 -0.212883,0.10283 -0.434799,0.18844 -0.493148,0.19025 -0.101784,0.003 -0.58003,0.20646 -0.932818,0.39656 -0.09241,0.0498 -0.223047,0.0908 -0.290294,0.0911 -0.06725,3.3e-4 -0.23113,0.0568 -0.364181,0.12551 -0.133051,0.0687 -0.524948,0.22968 -0.870882,0.35772 -0.345934,0.12804 -0.737831,0.28901 -0.870882,0.35772 -0.133052,0.0687 -0.318114,0.12518 -0.41125,0.12551 -0.09314,3.3e-4 -0.169338,0.0407 -0.169338,0.0897 0,0.049 -0.130133,0.11766 -0.289185,0.15259 -0.159051,0.0349 -0.314025,0.10371 -0.344387,0.15283 -0.03036,0.0491 -0.120338,0.0893 -0.199948,0.0893 -0.07961,0 -0.34919,0.0902 -0.599068,0.20053 -0.249878,0.11028 -0.606728,0.2648 -0.793,0.34336 -0.186272,0.0786 -0.414287,0.18428 -0.506701,0.23492 -0.09241,0.0506 -0.216466,0.0921 -0.27567,0.0921 -0.0592,0 -0.26663,0.0693 -0.460946,0.154 -0.997669,0.43487 -1.23817,0.54304 -1.392207,0.62619 -0.09241,0.0499 -0.214549,0.0907 -0.271412,0.0907 -0.08957,0 -0.3899,0.12053 -1.205562,0.48382 -0.214423,0.0955 -1.092064,0.46688 -1.935294,0.81892 -0.159662,0.0667 -0.486242,0.2093 -0.725735,0.31697 -0.239493,0.10767 -0.653162,0.27492 -0.919264,0.37166 -0.266103,0.0967 -0.505596,0.20532 -0.532206,0.24128 -0.02661,0.036 -0.189901,0.0961 -0.362868,0.13361 -0.172967,0.0375 -0.314485,0.10832 -0.314485,0.15731 0,0.049 -0.06962,0.0891 -0.154714,0.0891 -0.159102,0 -0.360566,0.0833 -1.555299,0.64268 -0.38169,0.17873 -0.762701,0.32496 -0.84669,0.32496 -0.08399,0 -0.152708,0.0435 -0.152708,0.0968 0,0.0532 -0.0762,0.0982 -0.169338,0.10005 -0.09314,0.002 -0.343515,0.0874 -0.556397,0.19025 -0.212882,0.10283 -0.41998,0.18844 -0.460218,0.19024 -0.04024,0.002 -0.06201,-3.41837 -0.04838,-7.60039 l 0.02478,-7.60369 1.25794,-0.531177 c 0.691868,-0.29215 1.483807,-0.63706 1.759865,-0.76646 0.276057,-0.12941 0.528825,-0.23528 0.561705,-0.23528 0.05167,0 0.420334,-0.15351 1.161959,-0.48382 0.555532,-0.24744 1.115158,-0.4761 1.548235,-0.6326 0.266102,-0.0962 0.529824,-0.20923 0.586048,-0.25125 0.05622,-0.042 0.594032,-0.27406 1.195131,-0.51564 0.601098,-0.24157 1.230031,-0.50252 1.397627,-0.57988 0.167597,-0.0774 0.544215,-0.23092 0.836928,-0.34125 0.292713,-0.11033 0.619294,-0.24143 0.725735,-0.29133 0.106441,-0.0499 0.585426,-0.2468 1.064411,-0.43757 0.979474,-0.39011 1.065662,-0.42513 1.741764,-0.70765 0.266103,-0.1112 0.832177,-0.33837 1.257941,-0.50484 0.425765,-0.16647 0.861206,-0.34152 0.967647,-0.389 0.229435,-0.10236 1.268489,-0.50521 2.999705,-1.16302 0.691867,-0.26288 1.345029,-0.5194 1.45147,-0.57003 0.106441,-0.0506 0.607198,-0.24867 1.112794,-0.44009 1.121724,-0.42469 1.599745,-0.61248 1.9983,-0.78502 0.167704,-0.0726 0.340405,-0.13201 0.383778,-0.13201 0.04337,0 0.602866,-0.19915 1.243317,-0.44255 0.640451,-0.24341 1.316861,-0.50049 1.503133,-0.57129 0.186272,-0.0708 0.690734,-0.26355 1.121028,-0.42833 0.430294,-0.16477 0.8281,-0.29959 0.884013,-0.29959 0.05591,0 0.226383,-0.065 0.378823,-0.14455 0.15244,-0.0795 0.344658,-0.14482 0.427149,-0.14515 0.08249,-3.3e-4 0.191353,-0.0401 0.241912,-0.0884 0.05056,-0.0483 0.244331,-0.13225 0.430603,-0.18662 0.186272,-0.0544 0.708801,-0.23635 1.161176,-0.40441 0.452375,-0.16806 0.996676,-0.36402 1.209558,-0.43546 0.212883,-0.0714 1.410346,-0.48532 2.661029,-0.91974 1.250683,-0.43442 2.426374,-0.83147 2.612646,-0.88234 0.186272,-0.0509 0.425765,-0.12937 0.532206,-0.17445 0.701772,-0.29723 8.329718,-2.68788 9.676468,-3.03267 0.106441,-0.0273 0.73783,-0.21053 1.403087,-0.40728 0.665258,-0.19676 1.688544,-0.48184 2.27397,-0.63352 0.585427,-0.15168 1.325676,-0.34802 1.645,-0.4363 0.960975,-0.26566 2.388581,-0.60383 4.886616,-1.15753 1.303904,-0.28902 2.653771,-0.59147 2.999705,-0.67211 0.555414,-0.12948 1.59995,-0.31105 4.54794,-0.79055 0.452374,-0.0736 1.214396,-0.17855 1.693381,-0.23325 0.478986,-0.0547 1.001515,-0.11917 1.161177,-0.14325 0.159661,-0.0241 0.551558,-0.0665 0.870882,-0.0944 0.319323,-0.0278 0.841852,-0.0737 1.161176,-0.10195 0.319323,-0.0282 1.565324,-0.0776 2.76889,-0.10964 4.71202,-0.1255 8.267856,0.4461 11.318118,1.81939 0.50134,0.22571 0.98026,0.46774 1.06428,0.53784 0.084,0.0701 0.17982,0.12746 0.21287,0.12746 0.0937,0 0.928958,0.5678 1.569658,1.06699 1.19392,0.93021 2.26458,2.17642 3.15686,3.67448 0.41853,0.70267 1.05241,2.05646 1.05241,2.24766 0,0.0516 0.0586,0.23104 0.13014,0.39875 0.36177,0.84757 0.61531,2.58117 0.639,4.36903 0.0196,1.48211 0.17512,3.40418 0.29325,3.62489 0.0543,0.10153 0.0988,0.27437 0.0988,0.3841 0,0.53821 0.77227,2.29751 1.44715,3.29674 0.50085,0.74156 1.61131,1.914827 2.17212,2.294967 0.21806,0.14782 0.41824,0.29654 0.44485,0.33051 0.0266,0.034 0.35319,0.22581 0.72574,0.42633 0.37254,0.20052 0.74266,0.39993 0.8225,0.44314 0.0798,0.0432 0.36286,0.1687 0.62897,0.27888 0.2661,0.11017 0.55056,0.23679 0.63214,0.28138 0.0816,0.0446 0.29787,0.11391 0.48065,0.15406 0.18278,0.0401 0.39907,0.10785 0.48065,0.15046 0.21631,0.11299 1.05548,0.35606 1.50303,0.43535 0.21288,0.0377 0.4306,0.0955 0.48382,0.12844 0.12439,0.077 1.48213,0.28255 2.66103,0.40293 0.50559,0.0516 1.39825,0.14229 1.98367,0.20147 1.40411,0.14193 6.80268,-0.0611 7.88632,-0.29662 0.2395,-0.0521 0.7838,-0.12189 1.20956,-0.15521 0.74769,-0.0585 0.94023,-0.0831 1.35471,-0.17324 0.19509,-0.0424 1.33781,-0.18111 1.47457,-0.17898 0.0405,6.3e-4 0.11721,-0.0333 0.17043,-0.0755 0.0532,-0.0421 0.35803,-0.10619 0.67735,-0.14236 0.31932,-0.0362 0.71404,-0.10757 0.87715,-0.15868 0.1631,-0.0511 0.57677,-0.13346 0.91926,-0.18303 0.34249,-0.0496 0.92752,-0.15589 1.30006,-0.23627 0.37254,-0.0804 0.93862,-0.19428 1.25794,-0.25311 0.31932,-0.0588 0.66768,-0.14623 0.77412,-0.19423 0.10644,-0.048 0.41125,-0.12809 0.67735,-0.17798 0.2661,-0.0499 0.74509,-0.14015 1.06441,-0.20057 0.31933,-0.0604 0.66768,-0.14919 0.77412,-0.19728 0.10644,-0.0481 0.38948,-0.1313 0.62897,-0.1849 0.83035,-0.18584 3.26969,-0.8591 3.53191,-0.97482 0.10644,-0.047 0.4548,-0.15928 0.77412,-0.24959 1.01967,-0.28834 1.83421,-0.54206 1.98367,-0.61788 0.0798,-0.0405 0.47173,-0.171297 0.87089,-0.290687 0.91529,-0.27376 1.51227,-0.47695 1.90153,-0.6472 0.16771,-0.0734 0.37197,-0.13336 0.45392,-0.13336 0.082,0 0.17244,-0.0379 0.20109,-0.0843 0.0286,-0.0463 0.1945,-0.11228 0.36857,-0.14653 0.28263,-0.0556 2.4365,-0.81582 2.92915,-1.03385 0.10644,-0.0471 0.41125,-0.15628 0.67735,-0.24261 0.2661,-0.0863 0.61446,-0.21265 0.77412,-0.28071 0.15966,-0.0681 0.50801,-0.20035 0.77412,-0.29398 0.2661,-0.0936 0.85395,-0.31172 1.30632,-0.48467 0.45237,-0.17294 1.14908,-0.43419 1.54823,-0.58056 0.39916,-0.14637 0.90841,-0.34724 1.13168,-0.44638 0.22327,-0.0991 0.4504,-0.18026 0.50473,-0.18026 0.0543,0 0.24179,-0.0617 0.41656,-0.13708 0.66729,-0.28784 1.01098,-0.42453 1.47895,-0.58818 0.2661,-0.0931 0.61445,-0.22369 0.77411,-0.29029 0.15966,-0.0666 0.50802,-0.20113 0.77412,-0.29895 0.2661,-0.0978 0.59268,-0.2337 0.72574,-0.30196 0.13305,-0.0683 0.29486,-0.12438 0.35958,-0.12471 0.0647,-3.3e-4 0.28244,-0.072 0.48382,-0.15915 0.41775,-0.18091 0.5325,-0.22606 1.3338,-0.52478 0.31932,-0.11904 0.7178,-0.27526 0.88551,-0.34714 0.1677,-0.0719 0.36583,-0.1307 0.44028,-0.1307 0.0744,0 0.17672,-0.0363 0.22728,-0.0808 0.0506,-0.0444 0.30965,-0.15927 0.57575,-0.25521 0.80194,-0.28912 2.77698,-1.04417 3.19324,-1.22076 0.10644,-0.0452 0.67251,-0.25905 1.25794,-0.47532 0.58542,-0.21627 1.1515,-0.43016 1.25794,-0.47532 0.10644,-0.0452 0.36771,-0.14841 0.58059,-0.22946 0.51219,-0.19501 1.40288,-0.54345 1.645,-0.64352 0.10644,-0.044 0.38947,-0.15644 0.62897,-0.24987 0.23949,-0.0934 0.56607,-0.22433 0.72573,-0.29087 0.15966,-0.0666 1.35713,-0.54515 2.66103,-1.06357 1.3039,-0.51841 2.41428,-0.96934 2.4675,-1.00206 0.15972,-0.0982 0.7643,-0.29667 0.79875,-0.26221 0.0176,0.0176 -0.0414,0.20072 -0.13127,0.40689 -0.33185,0.7617 -0.45596,1.07127 -0.80976,2.01985 -0.26182,0.70195 -0.46847,1.20663 -0.57584,1.40626 -0.0439,0.0816 -0.11262,0.29787 -0.15276,0.48065 -0.0402,0.18277 -0.10947,0.39907 -0.15406,0.48064 -0.12581,0.23019 -0.42848,0.96032 -0.66318,1.5998 -0.31552,0.85966 -0.68156,1.79775 -0.83636,2.14344 -0.0751,0.16771 -0.13655,0.36583 -0.13655,0.44028 0,0.0745 -0.0348,0.17673 -0.0774,0.22729 -0.0426,0.0506 -0.17775,0.35319 -0.30037,0.67251 -0.12261,0.31933 -0.28372,0.71781 -0.35801,0.88551 -0.0743,0.16771 -0.13507,0.36583 -0.13507,0.44028 0,0.0744 -0.0363,0.17673 -0.0808,0.22729 -0.0444,0.0506 -0.15915,0.30964 -0.25495,0.57575 -0.0958,0.2661 -0.24991,0.658 -0.34247,0.87088 -0.0926,0.21288 -0.3319,0.8225 -0.53188,1.354707 -0.19997,0.5322 -0.43971,1.16359 -0.53274,1.40308 -0.093,0.2395 -0.31145,0.80557 -0.48535,1.25794 -0.35233,0.91649 -0.50292,1.10806 -0.94787,1.20578 -0.1679,0.0369 -0.33012,0.10725 -0.36048,0.15637 -0.0304,0.0491 -0.12034,0.0893 -0.19995,0.0893 -0.0796,0 -0.34919,0.0895 -0.59907,0.19882 -0.74478,0.32592 -0.81502,0.3537 -1.47035,0.58161 -0.34593,0.12031 -0.67252,0.25017 -0.72574,0.28857 -0.0532,0.0384 -0.23828,0.10009 -0.41125,0.13708 -0.17296,0.037 -0.31448,0.10248 -0.31448,0.14555 0,0.0431 -0.15777,0.1079 -0.35059,0.14408 -0.19282,0.0362 -0.42143,0.10422 -0.50801,0.15123 -0.32458,0.17619 -0.84522,0.37279 -1.14927,0.43398 -0.17297,0.0348 -0.31448,0.10337 -0.31448,0.15236 0,0.049 -0.0696,0.0891 -0.15472,0.0891 -0.0851,0 -0.29192,0.0604 -0.45963,0.13413 -0.1677,0.0738 -0.58795,0.23501 -0.93389,0.35831 -0.34593,0.1233 -0.73783,0.28039 -0.87088,0.3491 -0.13305,0.0687 -0.31554,0.12518 -0.40554,0.12551 -0.09,3.3e-4 -0.19054,0.0441 -0.22343,0.0974 -0.0329,0.0532 -0.13344,0.097 -0.22343,0.0974 -0.09,3.3e-4 -0.27249,0.0564 -0.40554,0.1247 -0.13305,0.0683 -0.45963,0.20415 -0.72574,0.30197 -0.2661,0.0978 -0.61445,0.23269 -0.77411,0.29971 -0.15967,0.067 -0.57333,0.22275 -0.91927,0.34605 -0.34593,0.1233 -0.73783,0.2804 -0.87088,0.3491 -0.13305,0.0687 -0.31554,0.12518 -0.40554,0.12551 -0.09,3.3e-4 -0.1882,0.0403 -0.21823,0.0889 -0.03,0.0486 -0.22855,0.11774 -0.44115,0.15365 -0.2126,0.0359 -0.38655,0.10157 -0.38655,0.14588 0,0.0443 -0.13357,0.10991 -0.29681,0.14576 -0.16325,0.0359 -0.41363,0.12614 -0.5564,0.20063 -0.14277,0.0745 -0.33322,0.13569 -0.42321,0.13602 -0.09,3.3e-4 -0.18847,0.0408 -0.21883,0.0899 -0.0304,0.0491 -0.18578,0.118 -0.34536,0.15305 -0.26786,0.0588 -0.68995,0.22953 -1.07461,0.43459 -0.0866,0.0462 -0.31519,0.11352 -0.50801,0.14969 -0.19283,0.0362 -0.35059,0.0996 -0.35059,0.141 0,0.0414 -0.15057,0.10347 -0.33459,0.138 -0.18403,0.0345 -0.45618,0.12618 -0.60478,0.2037 -0.14861,0.0775 -0.31964,0.1412 -0.38009,0.14153 -0.0604,3.2e-4 -0.23461,0.0656 -0.38705,0.14514 -0.15244,0.0795 -0.3508,0.14482 -0.4408,0.14515 -0.09,3.3e-4 -0.19053,0.0441 -0.22343,0.0974 -0.0329,0.0532 -0.13343,0.097 -0.22343,0.0974 -0.09,3.3e-4 -0.28521,0.064 -0.43382,0.14153 -0.1486,0.0775 -0.42075,0.16918 -0.60478,0.2037 -0.18402,0.0345 -0.33458,0.10147 -0.33458,0.14877 0,0.0473 -0.0762,0.0863 -0.16934,0.0866 -0.0931,3.2e-4 -0.29406,0.0656 -0.4465,0.14514 -0.15244,0.0795 -0.34839,0.14482 -0.43545,0.14515 -0.087,3.3e-4 -0.283,0.0656 -0.43544,0.14515 -0.15244,0.0795 -0.34838,0.14482 -0.43544,0.14514 -0.087,3.3e-4 -0.283,0.0656 -0.43544,0.14515 -0.15244,0.0795 -0.32003,0.14455 -0.37243,0.14455 -0.0524,0 -0.23249,0.0615 -0.40019,0.13673 -0.16771,0.0752 -0.6315,0.2299 -1.03066,0.34377 -0.39915,0.11387 -0.79248,0.24275 -0.87405,0.28641 -0.0816,0.0436 -0.2993,0.1117 -0.48383,0.15123 -0.18452,0.0395 -0.37904,0.10534 -0.43226,0.14627 -0.0532,0.0409 -0.24917,0.10625 -0.43544,0.14515 -0.18627,0.0389 -0.38222,0.10357 -0.43544,0.1437 -0.0532,0.0401 -0.27094,0.10432 -0.48383,0.14264 -0.21288,0.0383 -0.4306,0.10363 -0.48382,0.14514 -0.0532,0.0415 -0.27094,0.10684 -0.48382,0.14515 -0.21289,0.0383 -0.43061,0.10428 -0.48383,0.14659 -0.0532,0.0423 -0.29271,0.12239 -0.5322,0.17794 -0.2395,0.0556 -0.69671,0.17167 -1.01603,0.25804 -0.31933,0.0864 -0.77654,0.20089 -1.01603,0.25449 -0.23949,0.0536 -0.52253,0.13591 -0.62897,0.18293 -0.21417,0.0946 -0.88379,0.25235 -1.68448,0.39686 -0.28782,0.0519 -0.55906,0.11654 -0.60275,0.14354 -0.0437,0.027 -0.39605,0.11512 -0.78302,0.19583 -0.38696,0.0807 -1.00838,0.211 -1.38093,0.28954 -0.63984,0.1349 -0.95229,0.19519 -2.95132,0.56951 -0.45237,0.0847 -1.12731,0.19466 -1.49985,0.24434 -0.37255,0.0497 -0.80799,0.13156 -0.96765,0.18197 -0.15966,0.0504 -0.68219,0.1212 -1.16117,0.1573 -0.47899,0.0361 -0.90402,0.086 -0.94451,0.11091 -0.0405,0.0249 -0.78074,0.11592 -1.645,0.20228 -1.63568,0.16343 -8.19727,0.28433 -8.32815,0.15345 z m 1.5563,-28.150447 c -0.0307,-0.0307 -0.41897,-0.0775 -0.86282,-0.10397 -1.33227,-0.0795 -3.66469,-0.3845 -4.00023,-0.52311 -0.10644,-0.044 -0.34594,-0.10856 -0.53221,-0.14354 -0.4644,-0.0872 -1.81552,-0.49958 -2.37073,-0.72359 -1.14975,-0.46388 -2.89524,-1.43471 -3.60877,-2.00716 -1.32651,-1.06424 -3.10609,-3.17916 -3.35772,-3.99046 -0.0413,-0.13305 -0.10182,-0.26368 -0.13457,-0.29029 -0.0625,-0.0508 -0.28343,-0.49386 -0.53071,-1.06441 -0.25383,-0.58568 -0.71781,-2.05645 -0.83947,-2.66103 -0.19609,-0.97448 -0.25773,-1.67998 -0.27655,-3.16538 -0.0192,-1.51193 -0.1895,-3.07092 -0.43123,-3.94683 -0.74755,-2.70871 -2.42052,-4.80374 -4.93266,-6.17705 -1.02375,-0.55965 -1.950398,-0.9266 -3.451108,-1.3666 -0.399155,-0.11703 -0.857513,-0.25219 -1.018573,-0.30035 -0.458485,-0.1371 -1.866471,-0.36843 -3.014424,-0.49526 -1.233968,-0.13633 -7.080147,-0.20975 -7.232154,-0.0908 -0.05759,0.0451 -0.708938,0.10957 -1.447451,0.14336 -0.738514,0.0338 -1.609396,0.10434 -1.935294,0.15677 -0.325898,0.0524 -0.919122,0.14297 -1.318277,0.20121 -2.031056,0.29633 -4.706557,0.77365 -6.241321,1.11348 -0.372544,0.0825 -0.96039,0.20999 -1.306323,0.28335 -1.353319,0.28697 -2.006743,0.43538 -2.564264,0.5824 -0.319324,0.0842 -0.841853,0.21339 -1.161176,0.28708 -0.572228,0.13206 -1.324184,0.31705 -2.177205,0.53562 -0.239493,0.0614 -0.52253,0.14887 -0.628971,0.19445 -0.106441,0.0456 -0.345934,0.11075 -0.532206,0.14483 -0.186272,0.0341 -0.469308,0.0979 -0.62897,0.14186 -0.48652,0.13392 -1.42683,0.40373 -1.886911,0.54144 -0.239493,0.0717 -0.696706,0.20165 -1.016029,0.28882 -0.583284,0.15923 -1.216287,0.3475 -1.935294,0.57558 -0.835952,0.26518 -1.36926,0.4175 -1.693382,0.48365 -0.186272,0.038 -0.38222,0.10262 -0.435441,0.14355 -0.05322,0.0409 -0.247739,0.10675 -0.432265,0.14627 -0.184525,0.0395 -0.402245,0.10509 -0.483823,0.14571 -0.08158,0.0406 -0.474904,0.17121 -0.874058,0.29021 -0.943087,0.28117 -3.379511,1.05955 -3.628675,1.15928 -0.106442,0.0426 -0.498339,0.17163 -0.870883,0.28673 -0.372544,0.1151 -0.76444,0.24748 -0.870882,0.29418 -0.106441,0.0467 -0.672514,0.24102 -1.25794,0.43182 -0.585427,0.1908 -1.1515,0.38578 -1.257941,0.43328 -0.106441,0.0475 -0.280618,0.10819 -0.387059,0.13487 -0.106441,0.0267 -0.62897,0.20838 -1.161176,0.40378 -0.532206,0.1954 -1.120051,0.39945 -1.306323,0.45345 -0.186272,0.054 -0.382221,0.12878 -0.435441,0.16618 -0.05322,0.0374 -0.423346,0.17008 -0.8225,0.29486 -0.399154,0.12477 -0.769279,0.25717 -0.8225,0.29423 -0.05322,0.0371 -0.336257,0.14179 -0.62897,0.23275 -0.681621,0.21179 -1.570023,0.55779 -1.688544,0.65761 -0.05056,0.0426 -0.159419,0.0777 -0.241911,0.078 -0.08249,3.3e-4 -0.274709,0.0656 -0.427149,0.14515 -0.15244,0.0795 -0.348389,0.14482 -0.435441,0.14515 -0.08705,3.3e-4 -0.267138,0.0565 -0.400189,0.1247 -0.133052,0.0683 -0.459633,0.20415 -0.725735,0.30196 -0.266103,0.0978 -0.614456,0.23238 -0.774118,0.29901 -0.670334,0.27978 -2.209532,0.82197 -2.333442,0.82197 -0.07373,0 -0.134057,0.0435 -0.134057,0.0968 0,0.0532 -0.0762,0.097 -0.169338,0.0974 -0.09314,3.2e-4 -0.294062,0.0656 -0.446502,0.14514 -0.15244,0.0795 -0.31812,0.14455 -0.368177,0.14455 -0.09065,0 -0.86573,0.32065 -1.147982,0.47492 -0.08158,0.0446 -0.287913,0.11172 -0.458523,0.14919 -0.170609,0.0375 -0.33504,0.10833 -0.365402,0.15746 -0.03036,0.0491 -0.122254,0.0893 -0.204206,0.0893 -0.08195,0 -0.286217,0.0638 -0.453921,0.14179 -0.167705,0.078 -0.718587,0.29643 -1.224183,0.48543 -0.991145,0.3705 -1.083142,0.40762 -1.741764,0.7028 -0.239493,0.10734 -0.653162,0.27486 -0.919264,0.37227 -0.266103,0.0974 -0.592684,0.23297 -0.725735,0.30123 -0.133052,0.0683 -0.296933,0.12437 -0.364181,0.1247 -0.06725,3.3e-4 -0.19788,0.042 -0.290294,0.0927 -0.209973,0.11507 -0.608218,0.28383 -1.71626,0.7273 -0.478985,0.1917 -0.95797,0.38937 -1.064411,0.43927 -0.106442,0.0499 -0.433022,0.18099 -0.725736,0.29132 -0.292713,0.11033 -0.68461,0.26688 -0.870882,0.34789 -0.186272,0.081 -0.425764,0.18197 -0.532205,0.22436 -0.106442,0.0424 -0.394248,0.17007 -0.63957,0.28375 -0.245321,0.11368 -0.474141,0.20668 -0.508488,0.20668 -0.03435,0 -0.288106,0.10886 -0.563908,0.24191 -0.275803,0.13306 -0.541159,0.24192 -0.589681,0.24192 -0.04852,0 -0.225435,0.0618 -0.39314,0.13731 -0.167705,0.0755 -0.601879,0.27147 -0.964831,0.43544 -0.362952,0.16397 -0.681036,0.29813 -0.706853,0.29813 -0.02582,0 -0.251385,0.0895 -0.501263,0.19881 -0.249878,0.10935 -0.563184,0.24456 -0.696235,0.30048 -0.133052,0.0559 -0.372544,0.15919 -0.532206,0.22949 -0.159662,0.0703 -0.46447,0.19958 -0.677353,0.28728 -0.212882,0.0877 -0.517691,0.2189 -0.677352,0.29156 -0.275735,0.12548 -0.850027,0.37285 -1.596618,0.68773 -0.186272,0.0786 -0.414287,0.18428 -0.506701,0.23492 -0.09241,0.0506 -0.21216,0.0921 -0.266103,0.0921 -0.06543,0 -0.09808,-2.52131 -0.09808,-7.57318 v -7.57318 l 0.459633,-0.21052 c 0.795404,-0.36431 1.366385,-0.60929 1.42011,-0.60929 0.02851,0 0.42363,-0.17417 0.878051,-0.38706 0.45442,-0.21288 0.850997,-0.38706 0.881281,-0.38706 0.03029,0 0.337295,-0.13063 0.682245,-0.29029 0.34495,-0.15966 0.647149,-0.29029 0.671555,-0.29029 0.04028,0 2.953195,-1.20814 4.00624,-1.66159 0.664087,-0.28597 0.780892,-0.33418 1.354706,-0.5592 0.292713,-0.11478 0.619294,-0.24687 0.725735,-0.29352 0.274758,-0.12043 2.571882,-1.04074 3.435146,-1.37624 0.399154,-0.15513 0.955532,-0.38828 1.236394,-0.51811 0.280863,-0.12983 0.551537,-0.23605 0.601497,-0.23605 0.04996,0 0.233832,-0.0613 0.408605,-0.1363 0.918814,-0.39411 3.696115,-1.48179 5.397913,-2.114 0.764974,-0.28418 1.185513,-0.45531 1.377584,-0.56056 0.09241,-0.0506 0.228307,-0.0921 0.301984,-0.0921 0.116375,0 0.5983,-0.18851 1.879817,-0.7353 0.174772,-0.0746 0.366036,-0.13558 0.425029,-0.13558 0.08899,0 0.702988,-0.22627 1.966614,-0.72471 0.106441,-0.042 0.672514,-0.24869 1.25794,-0.45935 0.585427,-0.21066 1.478081,-0.53338 1.983676,-0.71715 0.505596,-0.18377 1.049897,-0.37482 1.209559,-0.42456 0.159661,-0.0497 0.377382,-0.13222 0.483823,-0.18329 0.106441,-0.0511 0.694287,-0.25217 1.306323,-0.44689 0.612037,-0.19471 1.199882,-0.39293 1.306323,-0.44048 0.106442,-0.0476 0.672515,-0.24075 1.257941,-0.42936 0.585426,-0.1886 1.1515,-0.38159 1.257941,-0.42887 0.294307,-0.13073 5.512998,-1.79647 7.596027,-2.42455 0.558816,-0.1685 1.211978,-0.36603 1.45147,-0.43897 0.239493,-0.0729 0.674934,-0.19917 0.967647,-0.28052 0.292713,-0.0814 0.924103,-0.26146 1.403088,-0.40023 0.478985,-0.13878 1.045058,-0.29114 1.25794,-0.33859 0.212883,-0.0474 0.539464,-0.13025 0.725736,-0.18402 0.186272,-0.0538 0.730573,-0.2112 1.209558,-0.34986 1.046126,-0.30285 1.848729,-0.49986 2.559669,-0.62829 0.290186,-0.0524 0.573223,-0.13099 0.628971,-0.1746 0.05575,-0.0436 0.275535,-0.10525 0.488418,-0.13699 0.434804,-0.0648 0.611454,-0.10599 0.822499,-0.19161 0.07983,-0.0324 0.38464,-0.10574 0.677353,-0.163 0.76132,-0.14894 1.780279,-0.36245 2.564264,-0.53731 0.372544,-0.0831 1.011182,-0.21001 1.419195,-0.28206 0.408013,-0.072 0.821682,-0.15435 0.919264,-0.1829 0.09758,-0.0286 0.416915,-0.0804 0.709628,-0.1153 0.292714,-0.0349 0.557375,-0.0788 0.588137,-0.0977 0.179611,-0.11035 3.537563,-0.57572 5.604803,-0.77675 1.84066,-0.17899 6.835692,-0.26775 7.692791,-0.13669 0.319324,0.0488 0.950713,0.11709 1.403088,0.15171 0.452375,0.0346 1.060255,0.12329 1.350845,0.19705 0.290589,0.0738 0.608988,0.13411 0.707553,0.13411 0.183537,0 0.465563,0.0789 2.150866,0.60181 3.811069,1.18246 6.736089,3.66133 8.282059,7.01881 0.16531,0.35902 0.36203,0.78339 0.43715,0.94305 0.50457,1.07246 0.90625,3.36202 0.90824,5.17691 10e-4,1.37 0.17796,3.6028 0.29391,3.71874 0.0516,0.0516 0.0938,0.172 0.0938,0.26758 0,0.30104 0.40233,1.35284 0.84122,2.19922 0.42472,0.81905 1.05434,1.74152 1.55711,2.28137 0.34437,0.36978 1.41953,1.30632 1.49966,1.30632 0.0334,0 0.226,0.1131 0.42794,0.25133 1.36028,0.9311 5.33832,2.36382 6.5601,2.36267 0.15966,-1.5e-4 0.4427,0.042 0.62897,0.0936 0.43864,0.12159 2.20521,0.28006 3.91897,0.35156 1.21599,0.0507 6.05358,-0.16737 6.72515,-0.30321 0.13305,-0.0269 0.65558,-0.0919 1.16117,-0.1445 0.5056,-0.0526 1.13699,-0.13655 1.40309,-0.18662 0.2661,-0.0501 0.67977,-0.11282 0.91926,-0.13942 0.2395,-0.0266 0.97975,-0.15609 1.645,-0.28774 0.66526,-0.13164 1.38374,-0.26311 1.59662,-0.29214 0.21288,-0.029 0.80073,-0.14413 1.30632,-0.25579 0.5056,-0.11165 1.11522,-0.23848 1.35471,-0.28184 0.23949,-0.0434 0.63139,-0.12906 0.87088,-0.19044 0.36367,-0.0932 2.72985,-0.67818 3.96735,-0.98082 0.74161,-0.18137 1.47263,-0.39295 2.99971,-0.86824 0.87814,-0.2733 1.76138,-0.5379 1.96275,-0.588 0.20138,-0.0501 0.44087,-0.13206 0.53221,-0.18214 0.0913,-0.0501 0.64505,-0.24233 1.23048,-0.42722 0.58542,-0.18488 1.6958,-0.55992 2.4675,-0.83341 0.7717,-0.27348 1.66435,-0.58575 1.98367,-0.69393 0.31933,-0.10818 0.86199,-0.30632 1.20593,-0.44032 0.34393,-0.13399 0.95355,-0.36319 1.3547,-0.50933 0.96812,-0.35268 2.5753,-0.94774 3.02753,-1.12095 0.50243,-0.19243 1.11365,-0.4242 1.57243,-0.59624 0.74868,-0.28075 1.16401,-0.44108 1.45147,-0.56031 0.15966,-0.0662 0.66042,-0.26044 1.11279,-0.4316 0.45238,-0.17116 0.97491,-0.36949 1.16118,-0.44074 0.18627,-0.0713 0.7088,-0.2663 1.16117,-0.43343 0.45238,-0.16714 0.95314,-0.36044 1.1128,-0.42956 0.41428,-0.17936 0.97553,-0.39589 1.645,-0.63464 0.53379,-0.19037 1.32774,-0.49003 2.1772,-0.82173 0.18628,-0.0727 0.64349,-0.24796 1.01603,-0.38938 0.68198,-0.2589 2.08847,-0.79948 2.80618,-1.07855 0.21288,-0.0828 0.53946,-0.20884 0.72573,-0.28013 1.36065,-0.52082 3.66302,-1.42127 3.82221,-1.49486 0.10644,-0.0492 1.23859,-0.50512 2.51588,-1.01312 1.27729,-0.50801 2.40944,-0.96378 2.51588,-1.01283 0.10644,-0.049 0.69429,-0.29052 1.30632,-0.53661 0.61204,-0.24608 1.24343,-0.50548 1.40309,-0.57643 0.15966,-0.0709 0.68219,-0.28928 1.16118,-0.48516 0.47898,-0.19588 1.00151,-0.4134 1.16117,-0.48339 0.15967,-0.07 0.72574,-0.31255 1.25794,-0.53903 1.2389,-0.52722 1.64066,-0.70066 2.17721,-0.93987 0.23949,-0.10677 0.67493,-0.29194 0.96765,-0.41149 0.29271,-0.11955 0.79347,-0.33663 1.11279,-0.48241 0.31932,-0.14577 0.77654,-0.34333 1.01603,-0.43902 0.23949,-0.0957 0.82734,-0.35699 1.30632,-0.58066 0.93803,-0.43802 1.30633,-0.5755 1.30633,-0.48763 0,0.0597 -0.60017,1.62511 -0.83699,2.18308 -0.1979,0.46625 -0.2655,0.63778 -0.51485,1.30632 -0.1191,0.31932 -0.27733,0.7178 -0.35162,0.88551 -0.0743,0.1677 -0.13507,0.37197 -0.13507,0.45392 0,0.082 -0.0402,0.17384 -0.0893,0.2042 -0.0491,0.0304 -0.11751,0.18355 -0.15196,0.3404 -0.0344,0.15686 -0.17022,0.5082 -0.30171,0.78077 -0.13149,0.27256 -0.2645,0.62271 -0.29558,0.7781 -0.0311,0.1554 -0.0908,0.28254 -0.13267,0.28254 -0.0419,0 -0.10559,0.17418 -0.14156,0.38706 -0.036,0.21288 -0.10511,0.38706 -0.15365,0.38706 -0.0485,0 -0.0883,0.0681 -0.0883,0.1514 0,0.13835 -0.19955,0.67408 -0.54377,1.45984 -0.0735,0.1677 -0.13358,0.36583 -0.13358,0.44028 0,0.0745 -0.0348,0.17673 -0.0774,0.22729 -0.0426,0.0506 -0.17677,0.35319 -0.29819,0.67251 -0.3741,0.98384 -0.51479,1.3434 -0.64368,1.645 -0.0682,0.15966 -0.19929,0.48624 -0.29125,0.72574 -0.092,0.23949 -0.22661,0.57265 -0.29921,0.74035 -0.0726,0.16771 -0.13201,0.36583 -0.13201,0.44028 0,0.0744 -0.0348,0.17673 -0.0774,0.22729 -0.0426,0.0506 -0.1692,0.33142 -0.28136,0.62413 -0.11216,0.29272 -0.34539,0.90233 -0.5183,1.35471 -0.58718,1.53628 -0.6171,1.58685 -1.02361,1.73047 -0.2053,0.0725 -0.56922,0.21676 -0.80872,0.32049 -1.07434,0.46535 -1.32725,0.57079 -2.03205,0.84718 -0.29272,0.11478 -0.6193,0.24871 -0.72574,0.29761 -0.10644,0.0489 -0.43302,0.1784 -0.72573,0.28778 -0.29272,0.10937 -0.64107,0.24579 -0.77412,0.30315 -0.67126,0.28936 -0.86383,0.3693 -1.35471,0.56234 -0.29271,0.11511 -0.61929,0.24669 -0.72573,0.2924 -0.10644,0.0457 -0.4548,0.17984 -0.77412,0.29805 -0.62211,0.23031 -0.73149,0.27348 -1.40309,0.55371 -0.23949,0.0999 -0.63139,0.26063 -0.87088,0.35711 -0.23949,0.0965 -0.57265,0.23481 -0.74036,0.30741 -0.1677,0.0726 -0.37197,0.132 -0.45392,0.132 -0.082,0 -0.17286,0.0386 -0.20203,0.0858 -0.0292,0.0472 -0.20591,0.11448 -0.39277,0.14953 -0.18686,0.0351 -0.33974,0.0974 -0.33974,0.13847 0,0.0411 -0.3157,0.17635 -0.70155,0.30054 -0.38585,0.12419 -0.74508,0.25773 -0.79831,0.29676 -0.0532,0.039 -0.23828,0.10123 -0.41125,0.13822 -0.17296,0.037 -0.31448,0.10732 -0.31448,0.15632 0,0.049 -0.0762,0.0893 -0.16934,0.0897 -0.0931,3.2e-4 -0.29406,0.0656 -0.4465,0.14514 -0.15244,0.0795 -0.32662,0.14603 -0.38706,0.14784 -0.0604,0.002 -0.28407,0.0874 -0.49695,0.19024 -0.21289,0.10283 -0.4348,0.18844 -0.49315,0.19025 -0.10178,0.003 -0.58003,0.20646 -0.93282,0.39657 -0.0924,0.0498 -0.21646,0.0905 -0.27567,0.0905 -0.0592,0 -0.24486,0.06 -0.41256,0.13336 -0.16771,0.0734 -0.52264,0.2095 -0.78874,0.30255 -0.26611,0.0931 -0.61446,0.22369 -0.77412,0.2903 -0.15966,0.0666 -0.50801,0.19758 -0.77412,0.29106 -0.2661,0.0935 -0.67977,0.25357 -0.91926,0.35575 -0.23949,0.10218 -0.52253,0.22269 -0.62897,0.26781 -0.10644,0.0451 -0.47657,0.18013 -0.8225,0.30004 -0.34594,0.11991 -0.67034,0.2548 -0.7209,0.29975 -0.0506,0.045 -0.15284,0.0817 -0.22729,0.0817 -0.0744,0 -0.27257,0.06 -0.44028,0.13336 -0.1677,0.0734 -0.52263,0.2095 -0.78874,0.30255 -0.2661,0.0931 -0.61445,0.22542 -0.77411,0.29414 -0.6374,0.27433 -2.08506,0.81818 -2.17788,0.81818 -0.0543,0 -0.17433,0.0439 -0.26675,0.0976 -0.26162,0.15197 -2.73688,1.06358 -2.88789,1.06358 -0.0741,0 -0.13469,0.0435 -0.13469,0.0968 0,0.0532 -0.0696,0.0968 -0.15471,0.0968 -0.0851,0 -0.29193,0.06 -0.45964,0.13336 -0.1677,0.0734 -0.52263,0.2095 -0.78874,0.30255 -0.2661,0.0931 -0.61445,0.22404 -0.77411,0.29107 -0.15967,0.067 -0.57334,0.21741 -0.91927,0.33418 -0.34593,0.11678 -0.70458,0.25237 -0.79699,0.30131 -0.0924,0.0489 -0.21647,0.089 -0.27567,0.089 -0.0592,0 -0.24486,0.0615 -0.41257,0.13663 -0.44652,0.20007 -1.49232,0.54073 -1.66001,0.54073 -0.0796,0 -0.14476,0.0397 -0.14476,0.0883 0,0.0485 -0.17395,0.11765 -0.38655,0.15356 -0.2126,0.0359 -0.41112,0.10507 -0.44115,0.15366 -0.03,0.0486 -0.12165,0.0884 -0.2036,0.0884 -0.082,0 -0.28622,0.0586 -0.45393,0.13013 -0.1677,0.0716 -0.56618,0.20698 -0.8855,0.3009 -0.31933,0.0939 -0.73299,0.22878 -0.91927,0.2997 -0.18627,0.0709 -0.44753,0.15597 -0.58058,0.18901 -0.13306,0.033 -0.329,0.0978 -0.43545,0.14392 -0.10644,0.0461 -0.52011,0.17726 -0.91926,0.29142 -0.39915,0.11415 -0.8346,0.24609 -0.96765,0.29318 -0.13305,0.0471 -0.4052,0.11403 -0.60478,0.14872 -0.19957,0.0347 -0.36286,0.0968 -0.36286,0.13809 0,0.0412 -0.20235,0.10535 -0.44967,0.14244 -0.24731,0.0371 -0.51946,0.10559 -0.60478,0.15223 -0.0853,0.0466 -0.35106,0.12697 -0.59055,0.17853 -0.2395,0.0516 -0.69671,0.16445 -1.01603,0.25086 -0.87987,0.23812 -1.67392,0.43222 -2.37074,0.57952 -0.34593,0.0731 -0.93378,0.20433 -1.30632,0.29156 -0.37254,0.0872 -0.98216,0.21658 -1.35471,0.28745 -0.37254,0.0709 -0.67735,0.13856 -0.67735,0.15043 0,0.0254 -1.35512,0.25205 -2.32235,0.38839 -0.37254,0.0525 -0.76764,0.13441 -0.87799,0.18199 -0.11036,0.0476 -0.5458,0.11805 -0.96765,0.15659 -0.42185,0.0385 -0.83232,0.10341 -0.91215,0.14415 -0.0798,0.0407 -0.55882,0.10431 -1.06442,0.14127 -0.50559,0.0369 -1.04989,0.0884 -1.20955,0.11435 -0.15967,0.0259 -0.8346,0.0873 -1.49986,0.1363 -0.66525,0.049 -1.62322,0.13351 -2.12882,0.18773 -0.97805,0.10489 -3.80052,0.13454 -3.89415,0.0409 z"
       id="path1" /></g></svg>
